<svg xmlns="http://www.w3.org/2000/svg" viewBox="0 0 24 24">
  <style>.cls-1{fill:#1da1f2;}.cls-2{fill:#fff;}</style>
  <g>
    <path class="cls-1" d="M19.75 2H4.25C3.01 2 2 3.01 2 4.25v15.5C2 20.99 3.01 22 4.25 22h15.5c1.24 0 2.25-1.01 2.25-2.25V4.25C22 3.01 20.99 2 19.75 2zM4.25 3.5h15.5c.413 0 .75.337.75.75v9.676l-3.858-3.858c-.14-.14-.33-.22-.53-.22h-.003c-.2 0-.393.08-.532.224l-4.317 4.384-1.813-1.806c-.14-.14-.33-.22-.53-.22-.193-.03-.395.08-.535.227L3.5 17.642V4.25c0-.413.337-.75.75-.75zm-.744 16.28l5.418-5.534 6.282 6.254H4.25c-.402 0-.727-.322-.744-.72zm16.244.72h-2.42l-5.007-4.987 3.792-3.85 4.385 4.384v3.703c0 .413-.337.75-.75.75z"/><circle class="cls-1" cx="6.87" cy="6.31" r="1.54" transform="translate(2 2)"/>
  </g>
  <g>
    <path class="cls-1" d="M18,12H15.22c-2.89,0-5.16,2-5.16,4.49,0,2.35,2.11,4.14,4.94,4.24v2.2a.46.46,0,0,0,.08.23.5.5,0,0,0,.41.2.52.52,0,0,0,.27-.07c.17-.1,4.28-2.38,5.34-3.17a4.62,4.62,0,0,0,2-3.63h0C23.11,14,20.85,12,18,12Z"/>
    <path class="cls-2" d="M20.91,13.92a3.36,3.36,0,0,1,1.21,2.57,3.79,3.79,0,0,1-1.66,3c-.75.56-3.21,2-4.47,2.68V20.3a.46.46,0,0,0-.5-.43h-.26c-2.42,0-4.17-1.43-4.17-3.38a3.87,3.87,0,0,1,4.16-3.63H18A4.45,4.45,0,0,1,20.91,13.92Z"/>
    <circle class="cls-1" cx="14.65" cy="14.51" r="0.67" transform="translate(2 2)"/>
    <circle class="cls-1" cx="11.96" cy="14.51" r="0.67" transform="translate(2 2)"/>
    <circle class="cls-1" cx="17.34" cy="14.51" r="0.67" transform="translate(2 2)"/>
  </g>
</svg>