<svg xmlns="http://www.w3.org/2000/svg" viewBox="0 0 24 24">
  <style>.cls{fill:#1DA1F2;}</style>
  <g>
    <circle class="cls" cx="8.8699999" cy="8.3099995" r="1.54"/>
    <path class="cls" d="M22,13.7156372V4.25C22,3.0100098,20.9899902,2,19.75,2H4.25C3.0100098,2,2,3.0100098,2,4.25v15.5
      C2,20.9899902,3.0100098,22,4.25,22H15v0.9299927c0.0054932,0.0824585,0.0331421,0.1619263,0.0800171,0.2299805
      c0.0964966,0.1287842,0.2490845,0.2032471,0.4099731,0.2000122c0.0947266,0.001709,0.1880493-0.022522,0.2700195-0.0700073
      C15.8434448,23.2409058,16.8775024,22.6657104,18.0331421,22H19.75c1.2399902,0,2.25-1.0100098,2.25-2.25v-0.4505005
      c0.6622925-0.7798462,1.0597534-1.7640381,1.0999756-2.8095093C23.104248,15.4346313,22.6834717,14.4799805,22,13.7156372z
      M3.5,4.25c0-0.4130249,0.3369751-0.75,0.75-0.75h15.5c0.4130249,0,0.75,0.3369751,0.75,0.75v8.3388062
      c-0.5651855-0.2784424-1.1938477-0.4613037-1.8709717-0.5337524l-1.9869995-1.9870605
      c-0.1400146-0.1400146-0.3300171-0.2199707-0.5300293-0.2199707h-0.0029907c-0.2000122,0-0.3930054,0.0799561-0.5319824,0.223999
      l-2.1951904,2.229248c-1.0469971,0.3427124-1.9213867,0.9632568-2.5095825,1.7684937l-1.4252319-1.4197388
      c-0.1400146-0.1400146-0.3300171-0.2200317-0.5300293-0.2200317c-0.1929932-0.0299683-0.3950195,0.0800171-0.5349731,0.2269897
      L3.5,17.6420288V4.25z M16.4520264,12h-0.6689453l0.3319092-0.3369751L16.4520264,12z M4.25,20.5
      c-0.4019775,0-0.7269897-0.3220215-0.7440186-0.7199707l5.4180298-5.5340576l1.2658691,1.2602539
      c-0.0800781,0.3172607-0.1298828,0.6445313-0.1298828,0.9837646c0,1.9256592,1.4281006,3.4581909,3.4968262,4.0100098H4.25z
      M20.4500122,19.4899902c-0.75,0.5599976-3.210022,2-4.4699707,2.6799927v-1.8699951
      c-0.015564-0.25354-0.2337646-0.4465332-0.4873657-0.4309692c-0.0042114,0.0003052-0.0084229,0.0006104-0.0126343,0.0009766
      h-0.2600098c-2.4200439,0-4.1700439-1.4299927-4.1700439-3.3800049c0.1262817-2.133606,1.958252-3.7608643,4.0918579-3.6346436
      c0.0227661,0.0013428,0.0454712,0.0029297,0.0681763,0.0046387h2.7799683
      c1.0656738-0.0064697,2.0982666,0.3696289,2.9100342,1.0599976c0.7634277,0.6356812,1.2064209,1.5765991,1.210022,2.5700073
      C22.0665283,17.6974487,21.4498901,18.8117676,20.4500122,19.4899902z"/>
    <circle class="cls" cx="16.6499996" cy="16.5100002" r="0.6700001"/>
    <circle class="cls" cx="13.96" cy="16.5100002" r="0.6700001"/>
    <circle class="cls" cx="19.3400002" cy="16.5100002" r="0.6700001"/>
  </g>
</svg>
