<svg id="レイヤー_1" data-name="レイヤー 1" xmlns="http://www.w3.org/2000/svg" viewBox="0 0 2808.9 512"><defs><style>.cls-1{fill:#fff;}</style></defs><title>TVRemotePlus_white</title><g id="レイヤー_1-2" data-name="レイヤー 1-2"><path class="cls-1" d="M592,0H48A48,48,0,0,0,0,48V368a48,48,0,0,0,48,48H293.1v32h-160a32,32,0,0,0,0,64h384a32,32,0,0,0,0-64h-160V416H592a48,48,0,0,0,48-48V48A48,48,0,0,0,592,0ZM576,352H64V64H576Z" transform="translate(0)"/></g><path class="cls-1" d="M563.9,129.9a190,190,0,0,0-261.8,0,6.85,6.85,0,0,0-.21,9.69l.11.11,14.2,14.5a6.61,6.61,0,0,0,9.3.2,156.74,156.74,0,0,1,215,0,6.61,6.61,0,0,0,9.3-.2L564,139.7a6.84,6.84,0,0,0,0-9.69A1.14,1.14,0,0,0,563.9,129.9ZM433,213.7c-14.7,0-26.6,12.2-26.6,27.2s11.9,27.2,26.6,27.2,26.6-12.2,26.6-27.2S447.7,213.7,433,213.7Zm84.2-35.5a125.42,125.42,0,0,0-168.5,0,6.69,6.69,0,0,0-.54,9.45c.11.12.22.24.34.35l14.28,14.5a6.68,6.68,0,0,0,9.2.3,92,92,0,0,1,122,0,6.77,6.77,0,0,0,9.2-.3l14.3-14.5a6.77,6.77,0,0,0,0-9.57Z" transform="translate(0)"/><path class="cls-1" d="M804.41,378V166.43H723.84V138.07h193v28.36H836.31V378Z" transform="translate(0)"/><path class="cls-1" d="M1114.91,138.07,1032.41,378H997.93l-82.5-239.93h34.16L1016,337.23l66.39-199.16Z" transform="translate(0)"/><path class="cls-1" d="M1323.74,378h-41.41l-76.06-95.39h-36.42V378H1138V138.07h61.88a222.09,222.09,0,0,1,34.56,2.26,67.73,67.73,0,0,1,26.5,10.47,59.8,59.8,0,0,1,19.9,20.79q7.34,12.74,7.34,31.58,0,26.43-13.38,44.15t-36.41,26.27Zm-69-172.41a44.45,44.45,0,0,0-3.7-18.61,31.5,31.5,0,0,0-11.44-13.3,44.28,44.28,0,0,0-15.8-6.36,113.39,113.39,0,0,0-22.39-1.85h-31.59V256h28a114.22,114.22,0,0,0,24.65-2.42,37.7,37.7,0,0,0,18.7-10,41.61,41.61,0,0,0,10.23-16.11A65.8,65.8,0,0,0,1254.77,205.59Z" transform="translate(0)"/><path class="cls-1" d="M1412.52,382.19q-43,0-66.79-24.25T1322,289.05q0-44,23-70t60.26-26q16.76,0,29.65,4.83A59.19,59.19,0,0,1,1457.48,213a69.67,69.67,0,0,1,14.82,25.22q5.16,14.9,5.16,36.49v16.44H1352.74q0,31.43,15.79,48t43.67,16.59a85.48,85.48,0,0,0,19.58-2.25,93,93,0,0,0,17.32-5.8,125.5,125.5,0,0,0,13.86-7.17,84.1,84.1,0,0,0,9.34-6.53h1.77v33q-5.31,2.1-13.21,5.24a144,144,0,0,1-14.18,4.91q-8.87,2.42-16,3.71A105.33,105.33,0,0,1,1412.52,382.19ZM1448,268a84.29,84.29,0,0,0-2.9-21.11,43.65,43.65,0,0,0-7.41-15A34,34,0,0,0,1424,221.54q-8.3-3.54-20.54-3.55-12.09,0-20.55,3.63a49.13,49.13,0,0,0-15.39,10.55,50.48,50.48,0,0,0-10.31,15.71,67.68,67.68,0,0,0-4.51,20.07Z" transform="translate(0)"/><path class="cls-1" d="M1712.39,378V273.91q0-12.41-1-23t-4-16.52a20.81,20.81,0,0,0-9.18-9.51q-6-3.06-16.11-3.06-9.36,0-20.06,5.72a104.86,104.86,0,0,0-22.16,16.52c.1,1.83.24,4,.4,6.52s.24,5.51.24,8.95V378h-30.29V273.91q0-12.41-1-23t-4-16.52a20.88,20.88,0,0,0-9.19-9.51q-6-3.06-16.11-3.06-9.84,0-20.63,6.12a110.87,110.87,0,0,0-20.94,15.63V378h-30.3V198h30.3v20a109.79,109.79,0,0,1,23.6-18.45,51.82,51.82,0,0,1,25.7-6.52q16,0,28.28,7.25t18.77,23.85q13.69-15.31,26.75-23.21a53.81,53.81,0,0,1,28.36-7.89,59,59,0,0,1,21.11,3.62,41.77,41.77,0,0,1,16.6,11.69,56.87,56.87,0,0,1,11.19,20.46q4,12.26,4,30.78V378Z" transform="translate(0)"/><path class="cls-1" d="M1933.3,288.09q0,45.44-21.91,70.17T1853.06,383q-37.55,0-59.06-25.53t-21.51-69.37q0-45.12,22.16-70.1t58.41-25q36.4,0,58.33,24.89T1933.3,288.09Zm-31.26,0q0-35-12.73-52t-36.25-17q-23.68,0-36.5,17t-12.81,52q0,33.84,12.81,51.32t36.5,17.48q23.36,0,36.17-17.16T1902,288.09Z" transform="translate(0)"/><path class="cls-1" d="M2018.86,381.54q-24.81,0-38.67-14.09t-13.86-44.56V223.15h-20.46V198h20.46V146.29h30.3V198h55.75v25.14h-55.75v85.56q0,13.69.48,21.11a35.86,35.86,0,0,0,3.71,13.86,17.63,17.63,0,0,0,8.86,8.46q6.12,2.82,16.6,2.82a47.66,47.66,0,0,0,14.34-2.18,88.53,88.53,0,0,0,10-3.62h1.77v27.23a148.52,148.52,0,0,1-17.32,3.79A106.09,106.09,0,0,1,2018.86,381.54Z" transform="translate(0)"/><path class="cls-1" d="M2152.93,382.19q-43,0-66.79-24.25t-23.77-68.89q0-44,23-70t60.26-26q16.77,0,29.65,4.83A59,59,0,0,1,2197.88,213a69.55,69.55,0,0,1,14.83,25.22q5.14,14.9,5.15,36.49v16.44H2093.15q0,31.43,15.79,48t43.66,16.59a85.41,85.41,0,0,0,19.58-2.25,92.79,92.79,0,0,0,17.32-5.8,124.61,124.61,0,0,0,13.86-7.17,84.32,84.32,0,0,0,9.35-6.53h1.77v33q-5.33,2.1-13.21,5.24a144.93,144.93,0,0,1-14.18,4.91q-8.87,2.42-16,3.71A105.21,105.21,0,0,1,2152.93,382.19ZM2188.38,268a84.25,84.25,0,0,0-2.91-21.11,43.47,43.47,0,0,0-7.41-15,33.87,33.87,0,0,0-13.61-10.31q-8.31-3.54-20.55-3.55-12.08,0-20.54,3.63A49.13,49.13,0,0,0,2108,232.17a50.48,50.48,0,0,0-10.31,15.71,67.37,67.37,0,0,0-4.51,20.07Z" transform="translate(0)"/><path class="cls-1" d="M2402.36,210.42A79,79,0,0,1,2396.8,240a69.71,69.71,0,0,1-15.39,23.77,82,82,0,0,1-29.16,18.53q-16.77,6.29-42.38,6.28H2282.8V378h-31.91V138.07h60.27q21.27,0,36.25,3.55a77.44,77.44,0,0,1,26.43,11.44,65.52,65.52,0,0,1,20.95,23.28Q2402.35,190.44,2402.36,210.42Zm-33.19.81q0-12.4-4.27-21.59a36,36,0,0,0-13-15,50.4,50.4,0,0,0-17.64-7.09,126.34,126.34,0,0,0-25.06-2.09H2282.8v95.87h21.75q19.34,0,31.26-3.14a42.18,42.18,0,0,0,19.82-11.2,45.62,45.62,0,0,0,10.31-15.79A56.41,56.41,0,0,0,2369.17,211.23Z" transform="translate(0)"/><path class="cls-1" d="M2461.33,378H2431V127.28h30.29Z" transform="translate(0)"/><path class="cls-1" d="M2646,378H2615.7V358q-14,12.24-26.59,18.61a61.18,61.18,0,0,1-28,6.36,63,63,0,0,1-22.16-3.86,46.44,46.44,0,0,1-18.13-12.25,57.57,57.57,0,0,1-12-21.11q-4.27-12.72-4.27-30.93V198h30.29V300.49a221.26,221.26,0,0,0,1.05,23.77,46.5,46.5,0,0,0,4.75,16.52,23.29,23.29,0,0,0,10.07,10.15q6.36,3.22,18.29,3.22,11.12,0,23.69-6.28a108.44,108.44,0,0,0,23-15.47V198H2646Z" transform="translate(0)"/><path class="cls-1" d="M2738.48,382.35a114.37,114.37,0,0,1-33.76-4.83,150.79,150.79,0,0,1-26-10.32v-34h1.61q3.87,3.06,9.11,6.76a90,90,0,0,0,13.94,7.74,126.82,126.82,0,0,0,17,6.28,67.35,67.35,0,0,0,19.25,2.74,76.77,76.77,0,0,0,15.47-1.69q8.22-1.69,12.25-4.27a25.44,25.44,0,0,0,8.13-7.9q2.51-4.19,2.5-12.57,0-10.79-5.88-16.27t-20.87-9.18q-5.8-1.46-15.14-3.39t-17.25-4.19q-20.62-6-30-18.45t-9.34-30.21q0-24.33,18.37-39.64t48.82-15.31a126.44,126.44,0,0,1,30.13,3.71,105.39,105.39,0,0,1,25.46,9.35V239.1h-1.61a94.87,94.87,0,0,0-25.86-14.5,81.92,81.92,0,0,0-28.76-5.32q-15,0-25.3,6.29t-10.31,19q0,11.28,6.12,16.84t19.66,9.1q6.76,1.78,15.06,3.47t17.49,3.95q20,5,30,16.59t10.07,31.59a53.69,53.69,0,0,1-4.6,22,48.42,48.42,0,0,1-13.45,17.8A68.48,68.48,0,0,1,2769,378.16Q2756.85,382.35,2738.48,382.35Z" transform="translate(0)"/><path class="cls-1" d="M104.36,199.07H198q8.88,0,8.89,9t-8.89,9H160.92V318.35a8.4,8.4,0,0,1-2.86,6.63,11.28,11.28,0,0,1-7.73,2.52,11,11,0,0,1-7.65-2.52,8.53,8.53,0,0,1-2.78-6.63V217.1H104.36q-9.06,0-9.06-9T104.36,199.07Z" transform="translate(0)"/><path class="cls-1" d="M266.11,300a243.16,243.16,0,0,1,8.38-26.74L299,206.07q2.13-5.9,4.4-7.43a11.31,11.31,0,0,1,6.41-1.54,11,11,0,0,1,7.43,2.86c2.2,1.91,3.29,4,3.29,6.2a19.18,19.18,0,0,1-1.62,7.26L275.34,321.86q-2.65,6.66-10.3,6.66T254.92,322L212.36,213.76a21.54,21.54,0,0,1-1.53-7.47c0-2.25,1.08-4.35,3.24-6.28a10.85,10.85,0,0,1,7.44-2.91,12.07,12.07,0,0,1,6.58,1.54q2.39,1.53,4.61,7.43l24.61,67.17A196.86,196.86,0,0,1,265.43,300Z" transform="translate(0)"/></svg>